# AST/ASF file generated using VICON BodyLanguage
# -----------------------------------------------
:version 1.10
:name VICON
:units
  mass 1.0
  length 0.45
  angle deg
:documentation
   .ast/.asf automatically generated from VICON data using
   VICON BodyBuilder and BodyLanguage model FoxedUp or BRILLIANT.MOD
:root
   order TX TY TZ RX RY RZ
   axis XYZ
   position 0 0 0  
   orientation 0 0 0 
:bonedata
  begin
     id 1 
     name lhipjoint
     direction 0.646821 -0.743844 0.168282 
     length 2.62284 
     axis 0 0 0  XYZ
  end
  begin
     id 2 
     name lfemur
     direction 0.34202 -0.939693 0  
     length 7.79098  
     axis 0 0 20  XYZ
    dof rx ry rz
    limits (-160.0 20.0)
           (-70.0 70.0)
           (-60.0 70.0)
  end
  begin
     id 3 
     name ltibia
     direction 0.34202 -0.939693 0   
     length 8.1986   
     axis 0 0 20   XYZ
    dof rx
    limits (-10.0 170.0)
  end
  begin
     id 4 
     name lfoot
     direction 0.0766762 -0.210666 0.974546   
     length 1.95107   
     axis -90 7.62852e-016 20   XYZ
    dof rx rz
    limits (-45.0 90.0)
           (-70.0 20.0)
  end
  begin
     id 5 
     name ltoes
     direction 1.53582e-011 -4.21539e-011 1   
     length 0.983514   
     axis -90 7.62852e-016 20   XYZ
    dof rx
    limits (-90.0 20.0)
  end
  begin
     id 6 
     name rhipjoint
     direction -0.658967 -0.733632 0.165972   
     length 2.65935  
     axis 0 0 0  XYZ 
  end
  begin
     id 7 
     name rfemur
     direction -0.34202 -0.939693 0   
     length 7.69405   
     axis 0 0 -20   XYZ
    dof rx ry rz
    limits (-160.0 20.0)
           (-70.0 70.0)
           (-70.0 60.0)
  end
  begin
     id 8 
     name rtibia
     direction -0.34202 -0.939693 0   
     length 8.15138   
     axis 0 0 -20   XYZ
    dof rx
    limits (-10.0 170.0)
 end
 begin
     id 9 
     name rfoot
     direction -0.0806473 -0.221577 0.971802   
     length 2.09362  
     axis -90 -7.62852e-016 -20   XYZ
    dof rx rz
    limits (-45.0 90.0)
           (-20.0 70.0)
  end
  begin
     id 10 
     name rtoes
     direction -1.53524e-011 -4.2203e-011 1   
     length 1.05224   
     axis -90 -7.62852e-016 -20   XYZ
    dof rx
    limits (-90.0 20.0)
  end
  begin
     id 11 
     name lowerback
     direction -0.0484271 0.997202 0.0569433   
     length 1.86801   
     axis 0 0 0   XYZ
    dof rx ry rz
    limits (-20.0 45.0)
           (-30.0 30.0)
           (-30.0 30.0)
  end
  begin
     id 12 
     name upperback
     direction 0.0148864 0.998882 0.0448682   
     length 1.86634   
     axis 0 0 0   XYZ
    dof rx ry rz
    limits (-20.0 45.0)
           (-30.0 30.0)
           (-30.0 30.0)
  end
  begin
     id 13 
     name thorax
     direction 0.0368776 0.99918 0.0167067   
     length 1.87554   
     axis 0 0 0   XYZ
    dof rx ry rz
    limits (-20.0 45.0)
           (-30.0 30.0)
           (-30.0 30.0)
  end
  begin
     id 14 
     name lowerneck
     direction -0.0200531 0.999751 0.00976032   
     length 1.82429   
     axis 0 0 0   XYZ
    dof rx ry rz
    limits (-20.0 45.0)
           (-30.0 30.0)
           (-30.0 30.0)
  end
  begin
     id 15 
     name upperneck
     direction 0.0113135 0.99728 -0.0728357   
     length 1.79098   
     axis 0 0 0   XYZ
    dof rx ry rz
    limits (-20.0 45.0)
           (-30.0 30.0)
           (-30.0 30.0)
  end
  begin
     id 16
     name head
     direction 0.00559662 0.999607 -0.0274604  
     length 1.88003  
     axis 0 0 0   XYZ
    dof rx ry rz
    limits (-20.0 45.0)
           (-30.0 30.0)
           (-30.0 30.0)
  end
  begin
     id 17 
     name lclavicle
     direction 0.931914 0.362632 -0.00585704  
     length 3.94155  
     axis 0 0 0   XYZ
    dof ry rz
    limits (-20.0 10.0)
           (0.0 20.0)
  end
  begin
     id 18 
     name lhumerus
     direction 1 -4.48969e-011 2.13403e-027   
     length 5.77473   
     axis 180 -30 -90   XYZ
    dof rx ry rz
    limits (-60.0 90.0)
           (-90.0 90.0)
           (-90.0 90.0)
  end
  begin
     id 19
     name lradius
     direction 1 -4.48969e-011 5.41017e-027   
     length 3.53732   
     axis 180 -30 -90   XYZ
    dof rx
    limits (-10.0 170.0)
  end
  begin
     id 20
     name lwrist
     direction 1 -4.48986e-011 1.36145e-026   
     length 1.76866   
     axis -8.75986e-015 90 90   XYZ
    dof ry
    limits (-180.0 0.0)
 end
  begin
     id 21 
     name lhand
     direction 1 -4.48703e-011 2.72291e-026   
     length 0.556229   
     axis -1.73745e-014 90 90   XYZ
    dof rx rz
    limits (-90.0 90.0)
           (-45.0 45.0)
  end
  begin
     id 22 
     name lfingers
     direction 1 -4.49204e-011 5.44582e-026   
     length 0.448446   
     axis -3.4749e-014 90 90   XYZ
    dof rx
    limits (0.0 90.0)
  end
  begin
     id 23
     name lthumb
     direction 0.707107 -6.34773e-011 0.707107   
     length 0.643881   
     axis -90 45 2.85299e-015   XYZ
    dof rx rz
    limits (-45.0 45.0)
           (-45.0 45.0)
  end
  begin
     id 24 
     name rclavicle
     direction -0.951782 0.300043 0.0639076   
     length 3.96398  
     axis 0 0 0   XYZ 
    dof ry rz
    limits (-10.0 20.0)
           (-20.0 0.0)
  end
  begin
     id 25 
     name rhumerus
     direction -1 -4.48967e-011 6.14867e-028  
     length 5.79581   
     axis 180 30 90   XYZ
    dof rx ry rz
    limits (-90.0 60.0)
           (-90.0 90.0)
           (-90.0 90.0)
  end
  begin
     id 26 
     name rradius
     direction -1 -4.48966e-011 9.26908e-027   
     length 3.37412   
     axis 180 30 90   XYZ
    dof rx
    limits (-10.0 170.0)
  end
  begin
     id 27 
     name rwrist
     direction -1 -4.48999e-011 1.36145e-026   
     length 1.68706   
     axis -8.75986e-015 -90 -90   XYZ
    dof ry
    limits (-180.0 0.0)
  end
  begin
     id 28
     name rhand
     direction -1 -4.49032e-011 2.72291e-026   
     length 0.680496   
     axis -1.73745e-014 -90 -90   XYZ
    dof rx rz
    limits (-90.0 90.0)
           (-45.0 45.0)
  end
  begin
     id 29
     name rfingers
     direction -1 -4.48876e-011 5.44582e-026   
     length 0.548633   
     axis -3.4749e-014 -90 -90   XYZ
    dof rx
    limits (0.0 90.0)
  end
  begin
     id 30
     name rthumb
     direction -0.707107 -6.34964e-011 0.707107   
     length 0.787731   
     axis -90 -45 -2.85299e-015   XYZ
    dof rx rz
    limits (-45.0 45.0)
           (-45.0 45.0)
  end
:hierarchy
  begin
    root lhipjoint rhipjoint lowerback
    lhipjoint lfemur
    lfemur ltibia
    ltibia lfoot
    lfoot ltoes
    rhipjoint rfemur
    rfemur rtibia
    rtibia rfoot
    rfoot rtoes
    lowerback upperback
    upperback thorax
    thorax lowerneck lclavicle rclavicle
    lowerneck upperneck
    upperneck head
    lclavicle lhumerus
    lhumerus lradius
    lradius lwrist
    lwrist lhand lthumb
    lhand lfingers
    rclavicle rhumerus
    rhumerus rradius
    rradius rwrist
    rwrist rhand rthumb
    rhand rfingers
  end

#!OML:ASF H:\Terrain\Patient Classification 1\PaulMetrics\March1\PaulMetrics.ASF
:FULLY-SPECIFIED
:DEGREES
346
root -2.00137 18.1051 14.3072 -142.408 -75.9952 156.072
lowerback -5.70651 -0.87633 -5.66989
upperback -5.2379 -1.11856 1.37536
thorax -2.10452 -0.442057 4.56909
lowerneck -2.95527 -5.86723 -5.06627
upperneck 13.2984 -8.30543 3.6703
head 4.83962 -4.21919 1.50762
rclavicle -6.38596e-015 -5.56597e-015
rhumerus -55.4712 23.1914 -96.1861
rradius 48.0871
rwrist -8.02098
rhand -7.14751 -32.4473
rfingers 7.12502
rthumb 18.7289 -61.5656
lclavicle -6.38596e-015 -5.56597e-015
lhumerus -51.7894 -10.962 87.5972
lradius 49.4714
lwrist 1.74768
lhand -15.1017 -9.84043
lfingers 7.12502
lthumb 11.0666 19.8478
rfemur -31.9928 2.21582 28.4319
rtibia 34.5161
rfoot -16.3701 -13.8629
rtoes -9.49553
lfemur -32.4575 2.67889 -18.3458
ltibia 72.7569
lfoot -1.22105 1.43706
ltoes -17.5192
347
root -2.14865 18.1155 14.2539 -144.028 -75.3424 157.701
lowerback -5.77982 -0.835384 -5.59608
upperback -5.27691 -1.06815 1.34502
thorax -2.11161 -0.420325 4.49723
lowerneck -2.98807 -5.72499 -5.00633
upperneck 13.458 -8.12866 3.67002
head 4.88341 -4.13214 1.50546
rclavicle -7.97623e-015 -7.95139e-016
rhumerus -55.1215 22.6745 -95.651
rradius 48.7744
rwrist -8.14811
rhand -8.19014 -32.903
rfingers 7.12502
rthumb 17.7259 -62.115
lclavicle -7.97623e-015 -7.95139e-016
lhumerus -52.3875 -10.6523 87.6814
lradius 48.6962
lwrist 1.74784
lhand -14.3527 -10.2709
lfingers 7.12502
lthumb 11.7891 19.3773
rfemur -31.1909 2.68022 28.5182
rtibia 34.2778
rfoot -16.4049 -13.8222
rtoes -12.4586
lfemur -33.7066 2.24522 -18.3069
ltibia 72.8402
lfoot -2.18924 1.58682
ltoes -16.2072
348
root -2.29397 18.1283 14.199 -145.457 -74.6898 159.209
lowerback -5.89204 -0.799901 -5.52411
upperback -5.29915 -1.02197 1.32222
thorax -2.07873 -0.402006 4.43343
lowerneck -3.22886 -5.59521 -4.82146
upperneck 13.7238 -7.95337 3.53285
head 4.98482 -4.04381 1.43345
rclavicle -2.2736e-015 1.03368e-014
rhumerus -54.8969 22.5798 -95.4388
rradius 49.7382
rwrist -9.44187
rhand -11.2044 -33.7446
rfingers 7.12502
rthumb 14.8236 -63.1943
lclavicle -2.2736e-015 1.03368e-014
lhumerus -53.0808 -10.4649 87.7944
lradius 48.1255
lwrist 1.85615
lhand -14.1108 -11.0047
lfingers 7.12502
lthumb 12.0223 18.63
rfemur -30.5966 3.57898 28.502
rtibia 34.1918
rfoot -16.8099 -13.9085
rtoes -11.7695
lfemur -34.9346 1.84257 -18.2444
ltibia 72.6144
lfoot -3.23963 1.81307
ltoes -13.9105
349
root -2.43399 18.1446 14.1441 -146.654 -73.7867 160.45
lowerback -5.92012 -0.812828 -5.61793
upperback -5.28759 -1.03472 1.39823
thorax -2.04818 -0.406248 4.56486
lowerneck -3.55559 -5.35544 -5.15148
upperneck 13.9631 -7.6092 3.627
head 5.11503 -3.88236 1.52337
rclavicle 6.41081e-015 -3.57812e-014
rhumerus -54.5565 22.8924 -95.0859
rradius 50.6711
rwrist -10.2851
rhand -12.6954 -34.1718
rfingers 7.12502
rthumb 13.3868 -63.7217
lclavicle 6.41081e-015 -3.57812e-014
lhumerus -53.6118 -9.83448 87.9528
lradius 47.5554
lwrist 2.16562
lhand -14.553 -10.6623
lfingers 7.12502
lthumb 11.5958 18.9969
rfemur -30.0389 4.64055 28.3071
rtibia 34.188
rfoot -17.6669 -13.583
rtoes -6.73071
lfemur -35.998 1.61614 -18.3956
ltibia 72.0557
lfoot -4.17798 2.24452
ltoes -13.5554
350
root -2.57719 18.1636 14.0903 -146.968 -72.7526 160.664
lowerback -5.90185 -0.871511 -5.98512
upperback -5.2477 -1.09801 1.46159
thorax -2.00619 -0.428185 4.83607
lowerneck -3.90065 -5.13438 -5.71004
upperneck 14.2661 -7.26946 3.71417
head 5.2758 -3.73614 1.64798
rclavicle -3.598e-014 1.90833e-014
rhumerus -54.1448 23.3744 -94.5952
rradius 51.3422
rwrist -10.4352
rhand -12.8484 -33.9209
rfingers 7.12502
rthumb 13.2393 -63.4805
lclavicle -3.598e-014 1.90833e-014
lhumerus -53.7609 -8.68944 88.0125
lradius 46.6586
lwrist 1.95277
lhand -14.2723 -10.0703
lfingers 7.12502
lthumb 11.8665 19.5734
rfemur -29.3164 5.16672 27.9233
rtibia 34.2011
rfoot -18.334 -13.1664
rtoes -4.45777
lfemur -36.8456 1.28436 -18.8768
ltibia 71.2862
lfoot -5.01559 2.80598
ltoes -14.0097
351
root -2.73035 18.1797 14.0308 -146.489 -71.8185 160.185
lowerback -6.19816 -0.853137 -6.41238
upperback -5.18205 -1.03958 1.20979
thorax -1.78208 -0.400942 4.81229
lowerneck -4.14123 -5.06629 -5.32915
upperneck 14.362 -7.16475 3.46461
head 5.31829 -3.67735 1.50893
rclavicle 3.35449e-015 2.38542e-015
rhumerus -53.708 23.3834 -94.3374
rradius 52.109
rwrist -10.7232
rhand -13.2763 -33.8111
rfingers 7.12502
rthumb 12.8269 -63.397
lclavicle 3.35449e-015 2.38542e-015
lhumerus -53.6981 -8.20131 87.8888
lradius 45.6912
lwrist 1.62295
lhand -13.3353 -9.4356
lfingers 7.12502
lthumb 12.77 20.1539
rfemur -28.6932 5.68066 27.3569
rtibia 34.1617
rfoot -18.7959 -13.3016
rtoes -5.43678
lfemur -37.7651 0.603961 -19.4003
ltibia 70.3919
lfoot -5.94097 3.22559
ltoes -13.8148
352
root -2.87827 18.1868 13.9789 -147.371 -71.0079 161.173
lowerback -6.43025 -0.654683 -6.22145
upperback -5.12931 -0.771122 0.90312
thorax -1.63576 -0.28395 4.39426
lowerneck -4.2258 -5.08911 -4.52449
upperneck 14.1526 -7.21002 3.18994
head 5.2299 -3.67102 1.29267
rclavicle -4.26642e-014 1.59028e-014
rhumerus -53.1792 22.7193 -93.9552
rradius 53.0486
rwrist -10.9397
rhand -13.0705 -33.9471
rfingers 7.12502
rthumb 13.0252 -63.5205
lclavicle -4.26642e-014 1.59028e-014
lhumerus -53.8352 -8.42151 87.7938
lradius 45.0313
lwrist 1.78048
lhand -12.7707 -8.24393
lfingers 7.12502
lthumb 13.3142 21.3107
rfemur -28.0881 6.40475 27.2553
rtibia 33.9683
rfoot -19.0222 -13.4176
rtoes -5.61802
lfemur -38.7868 -0.0116636 -19.3335
ltibia 69.4886
lfoot -6.89671 3.49502
ltoes -12.4428
353
root -3.01817 18.1847 13.9336 -148.88 -70.1192 162.761
lowerback -6.4036 -0.359222 -5.79264
upperback -5.21245 -0.41015 0.639289
thorax -1.77995 -0.11579 3.89628
lowerneck -4.0475 -5.10771 -4.26014
upperneck 14.04 -7.29304 3.38189
head 5.16493 -3.69062 1.31064
rclavicle -2.10215e-014 0
rhumerus -52.9343 21.8628 -93.5521
rradius 54.0558
rwrist -11.0156
rhand -12.8503 -34.1424
rfingers 7.12502
rthumb 13.2375 -63.7021
lclavicle -2.10215e-014 0
lhumerus -54.3421 -8.78987 87.7919
lradius 44.5207
lwrist 1.97544
lhand -12.5253 -7.73488
lfingers 7.12502
lthumb 13.5508 21.8042
rfemur -27.3827 7.00373 27.3871
rtibia 33.65
rfoot -19.0029 -13.1653
rtoes -6.31542
lfemur -39.7743 -0.379106 -19.0929
ltibia 68.5315
lfoot -7.73159 3.80546
ltoes -11.2583
354
root -3.15918 18.1688 13.8783 -150.15 -69.4254 164.191
lowerback -6.48252 -0.200924 -5.46589
upperback -5.33958 -0.223981 0.519193
thorax -1.88702 -0.032507 3.59658
lowerneck -3.77201 -4.98923 -4.34524
upperneck 13.9166 -7.19454 3.80023
head 5.09368 -3.62848 1.46869
rclavicle 2.21148e-015 2.54444e-014
rhumerus -52.8933 21.4771 -93.371
rradius 55.0412
rwrist -11.2739
rhand -12.8507 -34.2848
rfingers 7.12502
rthumb 13.2372 -63.8445
lclavicle 2.21148e-015 2.54444e-014
lhumerus -54.9848 -9.01995 87.8603
lradius 44.1214
lwrist 2.20262
lhand -12.187 -7.70292
lfingers 7.12502
lthumb 13.8768 21.8141
rfemur -26.6976 7.61011 27.6323
rtibia 33.3188
rfoot -19.1122 -13.1682
rtoes -8.31689
lfemur -40.8387 -0.721465 -18.7471
ltibia 67.4493
lfoot -8.37576 4.09996
ltoes -12.7399
355
root -3.30066 18.1434 13.8222 -151.029 -68.7229 165.257
lowerback -6.63268 -0.187074 -5.31911
upperback -5.40917 -0.212784 0.536794
thorax -1.8766 -0.033092 3.53273
lowerneck -3.63365 -4.70632 -4.32252
upperneck 13.7024 -6.81445 3.87624
head 4.98926 -3.43876 1.51863
rclavicle -9.0944e-015 2.22639e-014
rhumerus -52.6691 21.6316 -93.2209
rradius 55.8958
rwrist -11.6288
rhand -12.2964 -34.411
rfingers 7.12502
rthumb 13.7713 -63.9352
lclavicle -9.0944e-015 2.22639e-014
lhumerus -55.5838 -8.77516 87.901
lradius 43.8641
lwrist 2.54039
lhand -12.319 -7.51567
lfingers 7.12502
lthumb 13.7495 22.01
rfemur -26.0474 8.1471 27.8013
rtibia 33.0186
rfoot -19.3804 -13.2868
rtoes -9.94078
lfemur -41.9217 -1.0551 -18.4783
ltibia 66.2207
lfoot -8.94395 4.35813
ltoes -15.233
356
root -3.44398 18.1369 13.7654 -151.2 -67.7749 165.461
lowerback -6.62394 -0.174792 -5.53833
upperback -5.45997 -0.194702 0.482577
thorax -1.93871 -0.0182543 3.60093
lowerneck -3.83951 -4.51239 -4.07438
upperneck 13.8145 -6.5149 3.49557
head 5.02543 -3.29899 1.37346
rclavicle 1.71452e-015 -1.59028e-014
rhumerus -52.4598 21.7933 -93.0415
rradius 56.7775
rwrist -11.8203
rhand -11.9513 -34.673
rfingers 7.12502
rthumb 14.104 -64.1743
lclavicle 1.71452e-015 -1.59028e-014
lhumerus -56.0783 -8.22207 87.8044
lradius 43.5271
lwrist 2.68312
lhand -12.5365 -7.63692
lfingers 7.12502
lthumb 13.5399 21.9029
rfemur -25.3778 8.74569 27.5202
rtibia 32.7634
rfoot -19.7655 -13.1672
rtoes -9.651
lfemur -42.7105 -1.52475 -18.5859
ltibia 64.7217
lfoot -9.67409 4.68833
ltoes -16.8561
